<?xml version="1.0" encoding="utf-8"?>
<!-- Generator: Adobe Illustrator 22.1.0, SVG Export Plug-In . SVG Version: 6.00 Build 0)  -->
<svg version="1.1" id="Layer_1" xmlns="http://www.w3.org/2000/svg" xmlns:xlink="http://www.w3.org/1999/xlink" x="0px" y="0px"
	 viewBox="0 0 102 79.6" style="enable-background:new 0 0 182.7 79.6;" xml:space="preserve">
<path
d="
M 15,26.3
c -7.6-0.1-13.8,5.9-13.9,13.5
c 0,0.2,0,0.5,0,0.7
v 26.9
l 7-4
V 51.5
c 2,1.5,4.5,2.3,7.1,2.3
c 7.6,0.2,13.9-5.9,14.1-13.5
c 0.2-7.6-5.9-13.9-13.5-14.1
C 15.5,26.3,15.3,26.3,15,26.3
L 15,26.3
z
M 15,46.9
c -3.8,0-6.9-3.1-6.9-6.9
c 0-3.8,3.1-6.9,6.9-6.9
c 3.8,0,6.9,3.1,6.9,6.9
l 0,0
c 0.2,3.6-2.6,6.7-6.2,6.9
C 15.4,46.9,15.2,46.9,15,46.9
z
M 62.9,17.6
l 7-4.1
v 39.2
h -7
V 17.6
z
M 45.5,26.3
c -7.6,0.1-13.7,6.3-13.6,13.9
c 0.1,7.6,6.3,13.7,13.9,13.6
c 7.6-0.1,13.6-6.2,13.6-13.8
c 0-7.6-6.1-13.7-13.6-13.8
C 45.7,26.3,45.6,26.3,45.5,26.3
L 45.5,26.3
z
M 45.5,46.9
c -3.8,0-6.9-3.1-6.9-6.9
c 0-3.8,3.1-6.9,6.9-6.9
c 3.8,0,6.9,3.1,6.9,6.9
l 0,0
c 0.2,3.6-2.6,6.7-6.2,6.9
C 45.9,46.9,45.7,46.9,45.5,46.9
L 45.5,46.9
z
M 102,27.3
l -16.4,37.4
h -7.5
l 5.7-12.5
l -11-24.9
h 7.6
l 7.2,16.3
l 6.9-16.3
H 102
z   
" fill="#002843"/>

</svg>
